<?xml version="1.0" encoding="UTF-8"?>
<svg width="277px" height="233px" viewBox="0 0 277 233" version="1.1" xmlns="http://www.w3.org/2000/svg" xmlns:xlink="http://www.w3.org/1999/xlink">
    <!-- Generator: Sketch 55.2 (78181) - https://sketchapp.com -->
    <title>img_traditionalstartup copy</title>
    <desc>Created with Sketch.</desc>
    <defs>
        <linearGradient x1="44.2755313%" y1="-3.68051613%" x2="50%" y2="100%" id="linearGradient-1">
            <stop stop-color="#070707" stop-opacity="0.1" offset="0%"></stop>
            <stop stop-color="#000000" stop-opacity="0.4" offset="100%"></stop>
        </linearGradient>
        <linearGradient x1="50%" y1="0%" x2="50%" y2="104.251934%" id="linearGradient-2">
            <stop stop-color="#FFB75A" offset="0%"></stop>
            <stop stop-color="#EE8A3C" offset="100%"></stop>
        </linearGradient>
        <circle id="path-3" cx="104.5" cy="67.1490196" r="18.5"></circle>
        <filter x="-18.9%" y="-13.5%" width="137.8%" height="137.8%" filterUnits="objectBoundingBox" id="filter-4">
            <feOffset dx="0" dy="2" in="SourceAlpha" result="shadowOffsetOuter1"></feOffset>
            <feGaussianBlur stdDeviation="2" in="shadowOffsetOuter1" result="shadowBlurOuter1"></feGaussianBlur>
            <feColorMatrix values="0 0 0 0 0   0 0 0 0 0   0 0 0 0 0  0 0 0 0.543952142 0" type="matrix" in="shadowBlurOuter1"></feColorMatrix>
        </filter>
        <linearGradient x1="50%" y1="5.19525644%" x2="50%" y2="104.251934%" id="linearGradient-5">
            <stop stop-color="#4D92EB" offset="0%"></stop>
            <stop stop-color="#2173DD" offset="100%"></stop>
        </linearGradient>
        <circle id="path-6" cx="104.5" cy="135.14902" r="18.5"></circle>
        <filter x="-18.9%" y="-13.5%" width="137.8%" height="137.8%" filterUnits="objectBoundingBox" id="filter-7">
            <feOffset dx="0" dy="2" in="SourceAlpha" result="shadowOffsetOuter1"></feOffset>
            <feGaussianBlur stdDeviation="2" in="shadowOffsetOuter1" result="shadowBlurOuter1"></feGaussianBlur>
            <feColorMatrix values="0 0 0 0 0   0 0 0 0 0   0 0 0 0 0  0 0 0 0.543952142 0" type="matrix" in="shadowBlurOuter1"></feColorMatrix>
        </filter>
    </defs>
    <g id="Page-1" stroke="none" stroke-width="1" fill="none" fill-rule="evenodd">
        <g id="WINFACTOR_webpage" transform="translate(-287.000000, -1554.000000)">
            <g id="Second-Fold" transform="translate(0.000000, 900.000000)">
                <g id="Group-8" transform="translate(0.000000, 343.000000)">
                    <g id="ladder-SVG" transform="translate(287.000000, 0.000000)">
                        <g id="img_traditionalstartup-copy" transform="translate(0.000000, 310.350980)">
                            <g id="Group-7" transform="translate(0.000000, 0.649020)">
                                <g id="Group-6">
                                    <path d="M49.9361493,96.5251459 L51.9245784,145.64955 L178.13066,145.64955 L174.591187,117.696277 L162.548867,13.6064524 L175.360369,9.48014825 L222.20776,212.010588 L186.196924,209.353517 L180.204055,162.024352 L52.5873881,162.024352 L54.471163,208.563262 L26.8032707,208.563262 L35.9815115,51.8032837 L35.3504148,15.1786485 L46.4476772,10.3419799 L49.2733396,80.1503443 L168.601219,80.1503443 L168.601219,96.5251459 L49.9361493,96.5251459 Z" id="Combined-Shape" fill="url(#linearGradient-1)" opacity="0.448497954"></path>
                                    <g id="Group-4" transform="translate(0.000000, -0.000000)">
                                        <polygon id="Path-2-Copy" fill="#52C1D5" points="35.6650633 0.662888821 45.7049101 0.662888821 19.8136055 210.286925 0 210.286925"></polygon>
                                        <polyline id="Path-3-Copy" fill="#287D8D" points="19.021676 210.286925 46.1311307 0.662888821 55.3357847 0.662888821 35.2051375 209.271474"></polyline>
                                    </g>
                                    <g id="Group-4-Copy-2" transform="translate(182.352696, 105.500000) scale(-1, 1) translate(-182.352696, -105.500000) translate(154.852696, -0.000000)">
                                        <polygon id="Path-2" fill="#52C1D5" points="36.9283685 0.662888821 46.9682153 0.662888821 20.4278653 210.286925 0.614259815 210.286925"></polygon>
                                        <polyline id="Path-3" fill="#287D8D" points="20.5005574 210.286925 45.1416058 0.662888821 54.3462597 0.662888821 36.6840189 208.93299"></polyline>
                                    </g>
                                </g>
                                <g id="Group-5" transform="translate(33.501905, 124.531415)">
                                    <polygon id="Path-5" fill="#52C1D5" points="142.781928 14.0679989 141.1866 1.13686838e-13 1.59532881 1.13686838e-13 0 14.0679989"></polygon>
                                    <polygon id="Path-5-Copy" fill="#287D8D" points="142.781928 21.5157068 142.781928 13.5753818 0 13.5753818 0 21.5157068"></polygon>
                                </g>
                                <g id="Group-5-Copy" transform="translate(40.351921, 57.900485)">
                                    <polygon id="Path-5" fill="#52C1D5" points="127.352653 15.8128508 125.857367 0.29988091 1.74855983 0.29988091 0.253273004 15.8128508"></polygon>
                                    <polygon id="Path-5-Copy" fill="#287D8D" points="127.352653 22.1651108 127.352653 15.0188183 0.253273004 15.0188183 0.253273004 22.1651108"></polygon>
                                </g>
                            </g>
                            <g id="Oval-Copy-3">
                                <use fill="black" fill-opacity="1" filter="url(#filter-4)" xlink:href="#path-3"></use>
                                <use fill="url(#linearGradient-2)" fill-rule="evenodd" xlink:href="#path-3"></use>
                            </g>
                            <g id="Oval-Copy-5">
                                <use fill="black" fill-opacity="1" filter="url(#filter-7)" xlink:href="#path-6"></use>
                                <use fill="url(#linearGradient-5)" fill-rule="evenodd" xlink:href="#path-6"></use>
                            </g>
                            <path d="M100.963636,71.0313325 C102.127279,70.0880172 103.054542,69.3009502 103.745455,68.670108 C104.436367,68.0392659 105.012119,67.3819028 105.472727,66.6979992 C105.933336,66.0140956 106.163636,65.3419934 106.163636,64.6816727 C106.163636,64.0803091 106.018183,63.6086585 105.727273,63.2667067 C105.436362,62.9247549 104.987882,62.7537815 104.381818,62.7537815 C103.775755,62.7537815 103.309093,62.9512852 102.981818,63.3462985 C102.654544,63.7413118 102.484849,64.2807622 102.472727,64.9646659 L100,64.9646659 C100.048485,63.5496928 100.481814,62.4766877 101.3,61.7456182 C102.118186,61.0145488 103.157569,60.6490196 104.418182,60.6490196 C105.800007,60.6490196 106.860602,61.0057054 107.6,61.7190876 C108.339398,62.4324699 108.709091,63.3728233 108.709091,64.5401761 C108.709091,65.4599086 108.454548,66.3383578 107.945455,67.1755502 C107.436361,68.0127426 106.854549,68.7408532 106.2,69.359904 C105.545451,69.9789547 104.690914,70.7247522 103.636364,71.5973189 L109,71.5973189 L109,73.6490196 L100.018182,73.6490196 L100.018182,71.8095638 L100.963636,71.0313325 Z" id="2" fill="#934A06" fill-rule="nonzero"></path>
                            <polygon id="1" fill="#062043" fill-rule="nonzero" points="103 130.949431 103 128.64902 107 128.64902 107 141.64902 104.609959 141.64902 104.609959 130.949431"></polygon>
                            <path d="M209.474325,55.7978746 L209.474325,65.1223021 L207.54738,65.1223021 L207.54738,59.0574166 L204.973531,65.1223021 L203.514558,65.1223021 L200.926945,59.0574166 L200.926945,65.1223021 L199,65.1223021 L199,55.7978746 L201.18846,55.7978746 L204.244044,62.7310807 L207.299629,55.7978746 L209.474325,55.7978746 Z M218.462149,61.261615 C218.462149,61.5287919 218.443798,61.7692475 218.407094,61.9829891 L212.832716,61.9829891 C212.878596,62.5173429 213.071288,62.9359138 213.410799,63.2387143 C213.750311,63.5415148 214.167811,63.6929127 214.663314,63.6929127 C215.37904,63.6929127 215.888299,63.3945697 216.191106,62.7978746 L218.269455,62.7978746 C218.049231,63.5103463 217.627143,64.0959003 217.003176,64.554554 C216.37921,65.0132077 215.613027,65.2425311 214.704606,65.2425311 C213.970527,65.2425311 213.312161,65.0844538 212.729487,64.7682944 C212.146812,64.4521351 211.692608,64.0046205 211.366861,63.4257372 C211.041114,62.8468539 210.878242,62.1789216 210.878242,61.4219204 C210.878242,60.6560132 211.03882,59.9836281 211.359979,59.4047448 C211.681138,58.8258615 212.130754,58.3805733 212.708841,58.0688669 C213.286927,57.7571605 213.952176,57.6013097 214.704606,57.6013097 C215.429508,57.6013097 216.078698,57.7527077 216.652197,58.0555082 C217.225695,58.3583087 217.670724,58.7880117 217.987295,59.3446303 C218.303866,59.9012489 218.462149,60.5402374 218.462149,61.261615 Z M216.466384,60.7272639 C216.457208,60.2463454 216.278279,59.8611712 215.929592,59.5717295 C215.580905,59.2822879 215.154229,59.1375692 214.64955,59.1375692 C214.172399,59.1375692 213.770956,59.277835 213.445209,59.5583708 C213.119462,59.8389065 212.919887,60.2285337 212.84648,60.7272639 L216.466384,60.7272639 Z M224.091583,57.6146685 C225.000005,57.6146685 225.734072,57.8929736 226.293806,58.4495921 C226.853541,59.0062107 227.133404,59.7832385 227.133404,60.780699 L227.133404,65.1223021 L225.206458,65.1223021 L225.206458,61.0345158 C225.206458,60.4467266 225.055057,59.9947591 224.75225,59.6785998 C224.449443,59.3624404 224.03653,59.2043631 223.513499,59.2043631 C222.981293,59.2043631 222.561498,59.3624404 222.254103,59.6785998 C221.946707,59.9947591 221.793012,60.4467266 221.793012,61.0345158 L221.793012,65.1223021 L219.866067,65.1223021 L219.866067,57.7215387 L221.793012,57.7215387 L221.793012,58.6432944 C222.04994,58.3226821 222.377976,58.0710943 222.777131,57.8885234 C223.176286,57.7059525 223.614432,57.6146685 224.091583,57.6146685 Z M231.207517,59.2577982 L231.207517,62.8379509 C231.207517,63.087316 231.269454,63.2676577 231.39333,63.3789814 C231.517205,63.4903052 231.725956,63.5459662 232.019587,63.5459662 L232.91424,63.5459662 L232.91424,65.1223021 L231.703017,65.1223021 C230.078878,65.1223021 229.266808,64.3564064 229.266808,62.8245921 L229.266808,59.2577982 L228.358391,59.2577982 L228.358391,57.7215387 L229.266808,57.7215387 L229.266808,55.891386 L231.207517,55.891386 L231.207517,57.7215387 L232.91424,57.7215387 L232.91424,59.2577982 L231.207517,59.2577982 Z M237.690312,65.2425311 C236.956234,65.2425311 236.295574,65.0844538 235.708311,64.7682944 C235.121049,64.4521351 234.659963,64.0046205 234.32504,63.4257372 C233.990117,62.8468539 233.822657,62.1789216 233.822657,61.4219204 C233.822657,60.6649191 233.994704,59.9969869 234.338804,59.4181036 C234.682901,58.8392203 235.153164,58.3917057 235.749603,58.0755463 C236.346041,57.759387 237.01129,57.6013097 237.745368,57.6013097 C238.479446,57.6013097 239.144694,57.759387 239.741133,58.0755463 C240.337571,58.3917057 240.807833,58.8392203 241.151932,59.4181036 C241.496031,59.9969869 241.668078,60.6649191 241.668078,61.4219204 C241.668078,62.1789216 241.491443,62.8468539 241.138168,63.4257372 C240.784893,64.0046205 240.30775,64.4521351 239.706723,64.7682944 C239.105697,65.0844538 238.433566,65.2425311 237.690312,65.2425311 Z M237.690312,63.6127601 C238.038999,63.6127601 238.367036,63.5303818 238.674431,63.3656227 C238.981826,63.2008636 239.22728,62.9537286 239.410799,62.6242104 C239.594319,62.2946923 239.686077,61.8939329 239.686077,61.4219204 C239.686077,60.7183545 239.495679,60.1773294 239.114876,59.7988288 C238.734073,59.4203281 238.268399,59.2310807 237.71784,59.2310807 C237.167282,59.2310807 236.706196,59.4203281 236.334569,59.7988288 C235.962941,60.1773294 235.777131,60.7183545 235.777131,61.4219204 C235.777131,62.1254862 235.958354,62.6665114 236.320805,63.045012 C236.683256,63.4235126 237.139754,63.6127601 237.690312,63.6127601 Z M245.012705,58.8703937 C245.260457,58.4785342 245.583905,58.1712854 245.98306,57.9486379 C246.382215,57.7259905 246.838713,57.6146685 247.352567,57.6146685 L247.352567,59.5784089 L246.843303,59.5784089 C246.237689,59.5784089 245.781191,59.7164483 245.473796,59.9925311 C245.1664,60.2686139 245.012705,60.7495251 245.012705,61.4352791 L245.012705,65.1223021 L243.08576,65.1223021 L243.08576,57.7215387 L245.012705,57.7215387 L245.012705,58.8703937 Z M251.56432,65.2425311 C250.940353,65.2425311 250.380627,65.1334355 249.885124,64.915241 C249.389622,64.6970465 248.997355,64.4009299 248.708311,64.0268822 C248.419268,63.6528345 248.260985,63.2387165 248.233457,62.7845158 L250.174166,62.7845158 C250.21087,63.0695045 250.35539,63.3055072 250.607729,63.4925311 C250.860068,63.6795549 251.174341,63.7730654 251.550556,63.7730654 C251.917595,63.7730654 252.20434,63.7018193 252.410799,63.559325 C252.617259,63.4168306 252.720487,63.2342625 252.720487,63.011615 C252.720487,62.7711558 252.594319,62.5908141 252.34198,62.4705845 C252.089641,62.3503549 251.688198,62.2189949 251.137639,62.0765005 C250.568728,61.9429121 250.103055,61.8048727 249.740603,61.6623784 C249.378152,61.519884 249.066174,61.3016928 248.804659,61.0077982 C248.543143,60.7139036 248.412388,60.3175972 248.412388,59.8188669 C248.412388,59.4091957 248.533967,59.0351536 248.777131,58.6967295 C249.020294,58.3583054 249.368976,58.0911325 249.823187,57.8952028 C250.277398,57.6992731 250.81189,57.6013097 251.426681,57.6013097 C252.335102,57.6013097 253.059994,57.8217273 253.601376,58.2625692 C254.142759,58.7034111 254.440974,59.2978708 254.49603,60.0459662 L252.651668,60.0459662 C252.62414,59.7520716 252.497972,59.5182953 252.27316,59.3446303 C252.048349,59.1709653 251.74784,59.0841341 251.371625,59.0841341 C251.022938,59.0841341 250.754545,59.1464745 250.566437,59.271157 C250.37833,59.3958396 250.284277,59.569502 250.284277,59.7921494 C250.284277,60.0415145 250.412739,60.230762 250.669666,60.3598975 C250.926594,60.489033 251.325743,60.620393 251.867125,60.7539814 C252.417684,60.8875699 252.871888,61.0256092 253.229751,61.1681036 C253.587614,61.3105979 253.897299,61.5310156 254.158814,61.8293631 C254.42033,62.1277107 254.555673,62.5217907 254.564849,63.011615 C254.564849,63.4390981 254.443269,63.8220459 254.200106,64.16047 C253.956942,64.4988941 253.608261,64.7638405 253.15405,64.9553173 C252.699839,65.1467941 252.169934,65.2425311 251.56432,65.2425311 Z M260.442033,57.6146685 C261.020119,57.6146685 261.533966,57.7371227 261.983589,57.9820349 C262.433212,58.226947 262.784188,58.5876305 263.036527,59.0640959 C263.288867,59.5405614 263.415034,60.1127567 263.415034,60.780699 L263.415034,65.1223021 L261.488089,65.1223021 L261.488089,61.0345158 C261.488089,60.4467266 261.336688,59.9947591 261.03388,59.6785998 C260.731073,59.3624404 260.31816,59.2043631 259.79513,59.2043631 C259.262923,59.2043631 258.843128,59.3624404 258.535733,59.6785998 C258.228338,59.9947591 258.074643,60.4467266 258.074643,61.0345158 L258.074643,65.1223021 L256.147697,65.1223021 L256.147697,55.2368059 L258.074643,55.2368059 L258.074643,58.6432944 C258.322394,58.3226821 258.652724,58.0710943 259.065643,57.8885234 C259.478562,57.7059525 259.937354,57.6146685 260.442033,57.6146685 Z M266.222869,56.8398593 C265.883358,56.8398593 265.601201,56.7352166 265.37639,56.525928 C265.151578,56.3166394 265.039174,56.0561458 265.039174,55.7444395 C265.039174,55.4327331 265.151578,55.1722395 265.37639,54.9629509 C265.601201,54.7536623 265.883358,54.6490196 266.222869,54.6490196 C266.56238,54.6490196 266.844537,54.7536623 267.069349,54.9629509 C267.29416,55.1722395 267.406564,55.4327331 267.406564,55.7444395 C267.406564,56.0561458 267.29416,56.3166394 267.069349,56.525928 C266.844537,56.7352166 266.56238,56.8398593 266.222869,56.8398593 Z M267.172578,57.7215387 L267.172578,65.1223021 L265.245633,65.1223021 L265.245633,57.7215387 L267.172578,57.7215387 Z M270.998941,58.790241 C271.246693,58.4518169 271.588493,58.1690589 272.024352,57.9419585 C272.46021,57.7148582 272.958,57.6013097 273.517734,57.6013097 C274.169229,57.6013097 274.758776,57.7571605 275.286395,58.0688669 C275.814014,58.3805733 276.231514,58.8236351 276.538909,59.3980654 C276.846305,59.9724958 277,60.6382016 277,61.3952028 C277,62.1522041 276.846305,62.8223627 276.538909,63.405699 C276.231514,63.9890352 275.814014,64.4410027 275.286395,64.761615 C274.758776,65.0822273 274.169229,65.2425311 273.517734,65.2425311 C272.958,65.2425311 272.464798,65.131209 272.038115,64.9085616 C271.611432,64.6859142 271.265045,64.4053826 270.998941,64.0669585 L270.998941,68.6490196 L269.071996,68.6490196 L269.071996,57.7215387 L270.998941,57.7215387 L270.998941,58.790241 Z M275.031763,61.3952028 C275.031763,60.949908 274.93771,60.5647337 274.749603,60.2396685 C274.561495,59.9146032 274.313748,59.6674683 274.006353,59.4982562 C273.698957,59.3290442 273.366333,59.2444395 273.00847,59.2444395 C272.659783,59.2444395 272.331747,59.3312706 272.024352,59.5049356 C271.716956,59.6786006 271.469209,59.9301884 271.281101,60.2597066 C271.092994,60.5892248 270.998941,60.9766255 270.998941,61.4219204 C270.998941,61.8672152 271.092994,62.2546159 271.281101,62.5841341 C271.469209,62.9136523 271.716956,63.1652401 272.024352,63.3389051 C272.331747,63.5125701 272.659783,63.5994013 273.00847,63.5994013 C273.366333,63.5994013 273.698957,63.5103437 274.006353,63.3322257 C274.313748,63.1541078 274.561495,62.9002935 274.749603,62.5707753 C274.93771,62.2412571 275.031763,61.8494036 275.031763,61.3952028 Z" id="Mentorship" fill="#FFFFFF" fill-rule="nonzero"></path>
                            <path d="M214.911471,125.869455 L214.911471,127.47305 L210.9202,127.47305 L210.9202,130.013258 L213.978803,130.013258 L213.978803,131.588471 L210.9202,131.588471 L210.9202,135.774847 L209,135.774847 L209,125.869455 L214.911471,125.869455 Z M223.442643,127.912974 L223.442643,135.774847 L221.508728,135.774847 L221.508728,134.78147 C221.261844,135.122058 220.939528,135.389321 220.541771,135.583267 C220.144013,135.777214 219.711972,135.874185 219.245636,135.874185 C218.651285,135.874185 218.125522,135.744101 217.668329,135.48393 C217.211137,135.223758 216.852246,134.840602 216.591646,134.33445 C216.331046,133.828298 216.200748,133.225182 216.200748,132.525084 L216.200748,127.912974 L218.120948,127.912974 L218.120948,132.241262 C218.120948,132.865674 218.271819,133.345801 218.573566,133.681659 C218.875313,134.017517 219.28678,134.185443 219.80798,134.185443 C220.338324,134.185443 220.754363,134.017517 221.05611,133.681659 C221.357857,133.345801 221.508728,132.865674 221.508728,132.241262 L221.508728,127.912974 L223.442643,127.912974 Z M229.546135,127.799445 C230.451376,127.799445 231.182873,128.09509 231.740648,128.68639 C232.298423,129.277689 232.577307,130.10313 232.577307,131.162738 L232.577307,135.774847 L230.657107,135.774847 L230.657107,131.432369 C230.657107,130.807957 230.506236,130.327829 230.204489,129.991971 C229.902742,129.656113 229.491274,129.488187 228.970075,129.488187 C228.439731,129.488187 228.021406,129.656113 227.715087,129.991971 C227.408768,130.327829 227.255611,130.807957 227.255611,131.432369 L227.255611,135.774847 L225.335411,135.774847 L225.335411,127.912974 L227.255611,127.912974 L227.255611,128.892161 C227.511639,128.551572 227.838527,128.284309 228.236284,128.090363 C228.634042,127.896417 229.070654,127.799445 229.546135,127.799445 Z M233.907731,131.815529 C233.907731,131.020823 234.060888,130.316005 234.367207,129.701054 C234.673526,129.086103 235.091851,128.61307 235.622195,128.281943 C236.152538,127.950815 236.742308,127.785254 237.391521,127.785254 C237.885289,127.785254 238.356191,127.896417 238.804239,128.118745 C239.252288,128.341074 239.608893,128.636719 239.874065,129.005689 L239.874065,125.273428 L241.821696,125.273428 L241.821696,135.774847 L239.874065,135.774847 L239.874065,134.611177 C239.636325,134.999069 239.302579,135.31127 238.872818,135.54779 C238.443057,135.784309 237.944724,135.902567 237.377805,135.902567 C236.737736,135.902567 236.152538,135.732276 235.622195,135.391688 C235.091851,135.051099 234.673526,134.570972 234.367207,133.95129 C234.060888,133.331609 233.907731,132.619695 233.907731,131.815529 Z M239.887781,131.843911 C239.887781,131.361411 239.796343,130.947508 239.613466,130.602189 C239.430589,130.25687 239.183709,129.991972 238.872818,129.807487 C238.561927,129.623002 238.228181,129.53076 237.871571,129.53076 C237.514961,129.53076 237.185787,129.620636 236.88404,129.800391 C236.582293,129.980146 236.337698,130.242679 236.150249,130.587998 C235.9628,130.933317 235.869077,131.342489 235.869077,131.815529 C235.869077,132.288568 235.9628,132.702471 236.150249,133.05725 C236.337698,133.41203 236.584579,133.684023 236.890898,133.873239 C237.197217,134.062455 237.524105,134.157061 237.871571,134.157061 C238.228181,134.157061 238.561927,134.06482 238.872818,133.880335 C239.183709,133.695849 239.430589,133.430951 239.613466,133.085633 C239.796343,132.740314 239.887781,132.326411 239.887781,131.843911 Z M244.674564,126.976361 C244.336241,126.976361 244.055072,126.865199 243.831047,126.64287 C243.607023,126.420542 243.495012,126.143818 243.495012,125.81269 C243.495012,125.481563 243.607023,125.204839 243.831047,124.982511 C244.055072,124.760182 244.336241,124.64902 244.674564,124.64902 C245.012886,124.64902 245.294055,124.760182 245.51808,124.982511 C245.742104,125.204839 245.854115,125.481563 245.854115,125.81269 C245.854115,126.143818 245.742104,126.420542 245.51808,126.64287 C245.294055,126.865199 245.012886,126.976361 244.674564,126.976361 Z M245.620948,127.912974 L245.620948,135.774847 L243.700748,135.774847 L243.700748,127.912974 L245.620948,127.912974 Z M251.724439,127.799445 C252.62968,127.799445 253.361178,128.09509 253.918953,128.68639 C254.476728,129.277689 254.755611,130.10313 254.755611,131.162738 L254.755611,135.774847 L252.835411,135.774847 L252.835411,131.432369 C252.835411,130.807957 252.68454,130.327829 252.382793,129.991971 C252.081046,129.656113 251.669579,129.488187 251.148379,129.488187 C250.618036,129.488187 250.199711,129.656113 249.893392,129.991971 C249.587072,130.327829 249.433915,130.807957 249.433915,131.432369 L249.433915,135.774847 L247.513716,135.774847 L247.513716,127.912974 L249.433915,127.912974 L249.433915,128.892161 C249.689943,128.551572 250.016831,128.284309 250.414589,128.090363 C250.812346,127.896417 251.248959,127.799445 251.724439,127.799445 Z M259.55611,127.785254 C260.123029,127.785254 260.621361,127.901147 261.051122,128.132936 C261.480883,128.364726 261.819201,128.665101 262.066085,129.034072 L262.066085,127.912974 L264,127.912974 L264,135.831612 C264,136.560092 263.858272,137.210512 263.574813,137.782889 C263.291354,138.355267 262.866171,138.809377 262.299252,139.145235 C261.732333,139.481093 261.046554,139.64902 260.241895,139.64902 C259.162921,139.64902 258.278266,139.388852 257.587905,138.868509 C256.897544,138.348166 256.50665,137.638617 256.415212,136.739843 L258.321696,136.739843 C258.422278,137.099353 258.639441,137.385537 258.973192,137.598405 C259.306943,137.811272 259.711552,137.917705 260.187032,137.917705 C260.744807,137.917705 261.197421,137.745048 261.544888,137.399729 C261.892354,137.054411 262.066085,136.53171 262.066085,135.831612 L262.066085,134.611177 C261.819201,134.980147 261.478597,135.287618 261.044264,135.533599 C260.609931,135.779579 260.113885,135.902567 259.55611,135.902567 C258.91604,135.902567 258.330842,135.732276 257.800499,135.391688 C257.270155,135.051099 256.85183,134.570972 256.545511,133.95129 C256.239192,133.331609 256.086035,132.619695 256.086035,131.815529 C256.086035,131.020823 256.239192,130.316005 256.545511,129.701054 C256.85183,129.086103 257.267869,128.61307 257.793641,128.281943 C258.319412,127.950815 258.906896,127.785254 259.55611,127.785254 Z M262.066085,131.843911 C262.066085,131.361411 261.974648,130.947508 261.791771,130.602189 C261.608894,130.25687 261.362013,129.991972 261.051122,129.807487 C260.740231,129.623002 260.406486,129.53076 260.049875,129.53076 C259.693265,129.53076 259.364091,129.620636 259.062344,129.800391 C258.760597,129.980146 258.516003,130.242679 258.328554,130.587998 C258.141105,130.933317 258.047382,131.342489 258.047382,131.815529 C258.047382,132.288568 258.141105,132.702471 258.328554,133.05725 C258.516003,133.41203 258.762883,133.684023 259.069202,133.873239 C259.375521,134.062455 259.702409,134.157061 260.049875,134.157061 C260.406486,134.157061 260.740231,134.06482 261.051122,133.880335 C261.362013,133.695849 261.608894,133.430951 261.791771,133.085633 C261.974648,132.740314 262.066085,132.326411 262.066085,131.843911 Z" id="Funding" fill="#FFFFFF" fill-rule="nonzero"></path>
                            <path d="M48.2995468,222.401223 L48.2995468,223.270959 L46.1662546,223.270959 L46.1662546,230.593192 L45.14452,230.593192 L45.14452,223.270959 L43,223.270959 L43,222.401223 L48.2995468,222.401223 Z M50.578801,225.198481 C50.7584475,224.830213 51.0148143,224.544221 51.3479089,224.340499 C51.6810036,224.136776 52.0870736,224.034916 52.566131,224.034916 L52.566131,225.139715 L52.2966625,225.139715 C51.1514158,225.139715 50.578801,225.790051 50.578801,227.090743 L50.578801,230.593192 L49.5570663,230.593192 L49.5570663,224.152448 L50.578801,224.152448 L50.578801,225.198481 Z M53.3633086,227.349313 C53.3633086,226.691132 53.4905563,226.113273 53.7450556,225.615719 C53.9995549,225.118165 54.3494862,224.732273 54.7948599,224.45803 C55.2402337,224.183788 55.7361255,224.046669 56.2825505,224.046669 C56.8214901,224.046669 57.2893127,224.168117 57.6860321,224.411018 C58.0827516,224.653918 58.3784155,224.959498 58.5730326,225.327766 L58.5730326,224.152448 L59.6059951,224.152448 L59.6059951,230.593192 L58.5730326,230.593192 L58.5730326,229.394367 C58.3709302,229.770471 58.0696525,230.081927 57.6691904,230.328745 C57.2687283,230.575563 56.802777,230.698971 56.2713226,230.698971 C55.7248977,230.698971 55.2308771,230.557934 54.789246,230.275856 C54.3476149,229.993778 53.9995549,229.598092 53.7450556,229.088785 C53.4905563,228.579477 53.3633086,227.999659 53.3633086,227.349313 Z M58.5730326,227.361067 C58.5730326,226.875266 58.479468,226.452156 58.2923362,226.091723 C58.1052044,225.73129 57.8525802,225.455093 57.5344561,225.263123 C57.216332,225.071154 56.8664008,224.97517 56.4846518,224.97517 C56.1029029,224.97517 55.7548429,225.069195 55.4404615,225.257247 C55.12608,225.445299 54.8753271,225.719537 54.6881953,226.07997 C54.5010635,226.440402 54.407499,226.863513 54.407499,227.349313 C54.407499,227.84295 54.5010635,228.271936 54.6881953,228.636287 C54.8753271,229.000637 55.12608,229.278793 55.4404615,229.470763 C55.7548429,229.662733 56.1029029,229.758716 56.4846518,229.758716 C56.8664008,229.758716 57.216332,229.662733 57.5344561,229.470763 C57.8525802,229.278793 58.1052044,229.000637 58.2923362,228.636287 C58.479468,228.271936 58.5730326,227.846867 58.5730326,227.361067 Z M60.9533375,227.349313 C60.9533375,226.691132 61.0805852,226.113273 61.3350845,225.615719 C61.5895837,225.118165 61.939515,224.732273 62.3848888,224.45803 C62.8302625,224.183788 63.329897,224.046669 63.8838072,224.046669 C64.3628646,224.046669 64.8082317,224.162241 65.2199217,224.393388 C65.6316117,224.624535 65.9459885,224.928156 66.1630614,225.30426 L66.1630614,221.895836 L67.1960239,221.895836 L67.1960239,230.593192 L66.1630614,230.593192 L66.1630614,229.382614 C65.960959,229.766553 65.6615526,230.081927 65.2648331,230.328745 C64.8681137,230.575563 64.4040337,230.698971 63.8725793,230.698971 C63.3261544,230.698971 62.8302625,230.557934 62.3848888,230.275856 C61.939515,229.993778 61.5895837,229.598092 61.3350845,229.088785 C61.0805852,228.579477 60.9533375,227.999659 60.9533375,227.349313 Z M66.1630614,227.361067 C66.1630614,226.875266 66.0694969,226.452156 65.8823651,226.091723 C65.6952332,225.73129 65.4426091,225.455093 65.124485,225.263123 C64.8063609,225.071154 64.4564296,224.97517 64.0746807,224.97517 C63.6929318,224.97517 63.3448718,225.069195 63.0304903,225.257247 C62.7161089,225.445299 62.465356,225.719537 62.2782241,226.07997 C62.0910923,226.440402 61.9975278,226.863513 61.9975278,227.349313 C61.9975278,227.84295 62.0910923,228.271936 62.2782241,228.636287 C62.465356,229.000637 62.7161089,229.278793 63.0304903,229.470763 C63.3448718,229.662733 63.6929318,229.758716 64.0746807,229.758716 C64.4564296,229.758716 64.8063609,229.662733 65.124485,229.470763 C65.4426091,229.278793 65.6952332,229.000637 65.8823651,228.636287 C66.0694969,228.271936 66.1630614,227.846867 66.1630614,227.361067 Z M69.4528224,223.106414 C69.2582053,223.106414 69.0935318,223.035896 68.9587969,222.894857 C68.824062,222.753818 68.7566955,222.58144 68.7566955,222.377717 C68.7566955,222.173994 68.824062,222.001616 68.9587969,221.860577 C69.0935318,221.719538 69.2582053,221.64902 69.4528224,221.64902 C69.6399542,221.64902 69.7990139,221.719538 69.9300062,221.860577 C70.0609985,222.001616 70.1264936,222.173994 70.1264936,222.377717 C70.1264936,222.58144 70.0609985,222.753818 69.9300062,222.894857 C69.7990139,223.035896 69.6399542,223.106414 69.4528224,223.106414 Z M69.946848,224.152448 L69.946848,230.593192 L68.9251133,230.593192 L68.9251133,224.152448 L69.946848,224.152448 Z M72.9334569,225.033936 L72.9334569,228.830215 C72.9334569,229.143634 72.9970808,229.364984 73.1243304,229.494269 C73.2515801,229.623555 73.4723923,229.688197 73.7867738,229.688197 L74.53904,229.688197 L74.53904,230.593192 L73.618356,230.593192 C73.0494752,230.593192 72.6228211,230.456073 72.3383807,230.181831 C72.0539403,229.907588 71.9117223,229.457054 71.9117223,228.830215 L71.9117223,225.033936 L71.1145447,225.033936 L71.1145447,224.152448 L71.9117223,224.152448 L71.9117223,222.530508 L72.9334569,222.530508 L72.9334569,224.152448 L74.53904,224.152448 L74.53904,225.033936 L72.9334569,225.033936 Z M76.3018129,223.106414 C76.1071958,223.106414 75.9425223,223.035896 75.8077874,222.894857 C75.6730525,222.753818 75.605686,222.58144 75.605686,222.377717 C75.605686,222.173994 75.6730525,222.001616 75.8077874,221.860577 C75.9425223,221.719538 76.1071958,221.64902 76.3018129,221.64902 C76.4889448,221.64902 76.6480044,221.719538 76.7789967,221.860577 C76.909989,222.001616 76.9754841,222.173994 76.9754841,222.377717 C76.9754841,222.58144 76.909989,222.753818 76.7789967,222.894857 C76.6480044,223.035896 76.4889448,223.106414 76.3018129,223.106414 Z M76.7958385,224.152448 L76.7958385,230.593192 L75.7741038,230.593192 L75.7741038,224.152448 L76.7958385,224.152448 Z M81.2196127,230.698971 C80.6432467,230.698971 80.1211567,230.561852 79.6533272,230.287609 C79.1854976,230.013367 78.8187247,229.623557 78.5529975,229.118168 C78.2872703,228.612778 78.1544087,228.027084 78.1544087,227.361067 C78.1544087,226.702885 78.2910129,226.121108 78.5642254,225.615719 C78.8374378,225.11033 79.2098246,224.722478 79.6813968,224.452154 C80.152969,224.181829 80.6806728,224.046669 81.2645241,224.046669 C81.8483754,224.046669 82.3760792,224.181829 82.8476514,224.452154 C83.3192236,224.722478 83.6916104,225.108371 83.9648228,225.609842 C84.2380353,226.111314 84.3746395,226.69505 84.3746395,227.361067 C84.3746395,228.027084 84.2342927,228.612778 83.953595,229.118168 C83.6728972,229.623557 83.2930253,230.013367 82.8139679,230.287609 C82.3349104,230.561852 81.803464,230.698971 81.2196127,230.698971 Z M81.2196127,229.758716 C81.5863911,229.758716 81.9307085,229.668609 82.2525752,229.488393 C82.5744419,229.308176 82.8345513,229.037856 83.032911,228.677423 C83.2312707,228.31699 83.3304491,227.878209 83.3304491,227.361067 C83.3304491,226.843924 83.233142,226.405143 83.0385249,226.04471 C82.8439078,225.684277 82.5894124,225.415916 82.2750309,225.239617 C81.9606494,225.063318 81.6200746,224.97517 81.2532963,224.97517 C80.8790326,224.97517 80.5365865,225.063318 80.2259477,225.239617 C79.9153088,225.415916 79.6664273,225.684277 79.4792954,226.04471 C79.2921636,226.405143 79.1985991,226.843924 79.1985991,227.361067 C79.1985991,227.886045 79.2902923,228.328744 79.4736815,228.689176 C79.6570707,229.049609 79.9022097,229.317971 80.2091059,229.494269 C80.5160021,229.670568 80.8528343,229.758716 81.2196127,229.758716 Z M88.7198187,224.034916 C89.468346,224.034916 90.074644,224.271936 90.5387309,224.745983 C91.0028179,225.220031 91.2348578,225.903667 91.2348578,226.796914 L91.2348578,230.593192 L90.2243511,230.593192 L90.2243511,226.949705 C90.2243511,226.307195 90.0709053,225.815525 89.7640091,225.474681 C89.4571129,225.133837 89.0379439,224.963417 88.5064895,224.963417 C87.9675498,224.963417 87.5390244,225.139713 87.2209003,225.49231 C86.9027762,225.844908 86.7437165,226.358125 86.7437165,227.031977 L86.7437165,230.593192 L85.7219819,230.593192 L85.7219819,224.152448 L86.7437165,224.152448 L86.7437165,225.069196 C86.9458189,224.740105 87.2208985,224.485455 87.5689637,224.305239 C87.9170289,224.125023 88.3006434,224.034916 88.7198187,224.034916 Z M92.526061,227.349313 C92.526061,226.691132 92.6533087,226.113273 92.907808,225.615719 C93.1623073,225.118165 93.5122385,224.732273 93.9576123,224.45803 C94.402986,224.183788 94.8988779,224.046669 95.4453028,224.046669 C95.9842425,224.046669 96.452065,224.168117 96.8487845,224.411018 C97.245504,224.653918 97.5411678,224.959498 97.7357849,225.327766 L97.7357849,224.152448 L98.7687474,224.152448 L98.7687474,230.593192 L97.7357849,230.593192 L97.7357849,229.394367 C97.5336825,229.770471 97.2324048,230.081927 96.8319427,230.328745 C96.4314806,230.575563 95.9655294,230.698971 95.434075,230.698971 C94.8876501,230.698971 94.3936295,230.557934 93.9519984,230.275856 C93.5103672,229.993778 93.1623073,229.598092 92.907808,229.088785 C92.6533087,228.579477 92.526061,227.999659 92.526061,227.349313 Z M97.7357849,227.361067 C97.7357849,226.875266 97.6422204,226.452156 97.4550886,226.091723 C97.2679568,225.73129 97.0153326,225.455093 96.6972085,225.263123 C96.3790844,225.071154 96.0291531,224.97517 95.6474042,224.97517 C95.2656553,224.97517 94.9175953,225.069195 94.6032138,225.257247 C94.2888324,225.445299 94.0380795,225.719537 93.8509477,226.07997 C93.6638158,226.440402 93.5702513,226.863513 93.5702513,227.349313 C93.5702513,227.84295 93.6638158,228.271936 93.8509477,228.636287 C94.0380795,229.000637 94.2888324,229.278793 94.6032138,229.470763 C94.9175953,229.662733 95.2656553,229.758716 95.6474042,229.758716 C96.0291531,229.758716 96.3790844,229.662733 96.6972085,229.470763 C97.0153326,229.278793 97.2679568,229.000637 97.4550886,228.636287 C97.6422204,228.271936 97.7357849,227.846867 97.7357849,227.361067 Z M101.519571,221.895836 L101.519571,230.593192 L100.497837,230.593192 L100.497837,221.895836 L101.519571,221.895836 Z M108.739081,230.675464 C108.222597,230.675464 107.760389,230.579481 107.352441,230.387511 C106.944494,230.195542 106.624503,229.929139 106.39246,229.588295 C106.160416,229.247451 106.040654,228.853723 106.033169,228.4071 L107.12227,228.4071 C107.159697,228.791039 107.311271,229.114248 107.576998,229.376738 C107.842726,229.639227 108.230083,229.770469 108.739081,229.770469 C109.225624,229.770469 109.609238,229.643144 109.889936,229.388491 C110.170634,229.133837 110.310981,228.80671 110.310981,228.4071 C110.310981,228.09368 110.228644,227.83903 110.063968,227.643143 C109.899292,227.447256 109.69345,227.298383 109.446436,227.196522 C109.199422,227.094661 108.866332,226.984965 108.447157,226.867433 C107.930673,226.726394 107.517118,226.585357 107.206479,226.444318 C106.89584,226.303279 106.630117,226.08193 106.409302,225.780263 C106.188486,225.478597 106.07808,225.073116 106.07808,224.563809 C106.07808,224.117186 106.186615,223.721499 106.403688,223.376738 C106.620761,223.031976 106.925781,222.765573 107.318758,222.577521 C107.711735,222.389469 108.162715,222.295445 108.671714,222.295445 C109.405271,222.295445 110.005955,222.487411 110.473785,222.871351 C110.941614,223.25529 111.205466,223.764589 111.265348,224.399264 L110.142563,224.399264 C110.105136,224.085845 109.947948,223.809648 109.670993,223.570665 C109.394038,223.331682 109.027265,223.212193 108.570663,223.212193 C108.144003,223.212193 107.795943,223.327765 107.526473,223.558912 C107.257003,223.790059 107.12227,224.113268 107.12227,224.528549 C107.12227,224.826298 107.202736,225.069195 107.363669,225.257247 C107.524603,225.445299 107.722959,225.588294 107.958745,225.686238 C108.194531,225.784182 108.52575,225.895836 108.95241,226.021204 C109.468894,226.170078 109.884321,226.316991 110.198702,226.461948 C110.513084,226.606905 110.782549,226.830213 111.007108,227.13188 C111.231666,227.433546 111.343943,227.842945 111.343943,228.360087 C111.343943,228.759697 111.242893,229.135796 111.040791,229.488393 C110.838689,229.84099 110.539282,230.126981 110.142563,230.346375 C109.745843,230.565769 109.278021,230.675464 108.739081,230.675464 Z M114.094767,225.033936 L114.094767,228.830215 C114.094767,229.143634 114.158391,229.364984 114.285641,229.494269 C114.41289,229.623555 114.633703,229.688197 114.948084,229.688197 L115.70035,229.688197 L115.70035,230.593192 L114.779666,230.593192 C114.210786,230.593192 113.784131,230.456073 113.499691,230.181831 C113.215251,229.907588 113.073033,229.457054 113.073033,228.830215 L113.073033,225.033936 L112.275855,225.033936 L112.275855,224.152448 L113.073033,224.152448 L113.073033,222.530508 L114.094767,222.530508 L114.094767,224.152448 L115.70035,224.152448 L115.70035,225.033936 L114.094767,225.033936 Z M116.553667,227.349313 C116.553667,226.691132 116.680915,226.113273 116.935414,225.615719 C117.189913,225.118165 117.539845,224.732273 117.985218,224.45803 C118.430592,224.183788 118.926484,224.046669 119.472909,224.046669 C120.011849,224.046669 120.479671,224.168117 120.876391,224.411018 C121.27311,224.653918 121.568774,224.959498 121.763391,225.327766 L121.763391,224.152448 L122.796354,224.152448 L122.796354,230.593192 L121.763391,230.593192 L121.763391,229.394367 C121.561289,229.770471 121.260011,230.081927 120.859549,230.328745 C120.459087,230.575563 119.993135,230.698971 119.461681,230.698971 C118.915256,230.698971 118.421236,230.557934 117.979604,230.275856 C117.537973,229.993778 117.189913,229.598092 116.935414,229.088785 C116.680915,228.579477 116.553667,227.999659 116.553667,227.349313 Z M121.763391,227.361067 C121.763391,226.875266 121.669827,226.452156 121.482695,226.091723 C121.295563,225.73129 121.042939,225.455093 120.724815,225.263123 C120.40669,225.071154 120.056759,224.97517 119.67501,224.97517 C119.293261,224.97517 118.945201,225.069195 118.63082,225.257247 C118.316438,225.445299 118.065686,225.719537 117.878554,226.07997 C117.691422,226.440402 117.597857,226.863513 117.597857,227.349313 C117.597857,227.84295 117.691422,228.271936 117.878554,228.636287 C118.065686,229.000637 118.316438,229.278793 118.63082,229.470763 C118.945201,229.662733 119.293261,229.758716 119.67501,229.758716 C120.056759,229.758716 120.40669,229.662733 120.724815,229.470763 C121.042939,229.278793 121.295563,229.000637 121.482695,228.636287 C121.669827,228.271936 121.763391,227.846867 121.763391,227.361067 Z M125.547178,225.198481 C125.726824,224.830213 125.983191,224.544221 126.316286,224.340499 C126.64938,224.136776 127.05545,224.034916 127.534508,224.034916 L127.534508,225.139715 L127.265039,225.139715 C126.119792,225.139715 125.547178,225.790051 125.547178,227.090743 L125.547178,230.593192 L124.525443,230.593192 L124.525443,224.152448 L125.547178,224.152448 L125.547178,225.198481 Z M129.959724,225.033936 L129.959724,228.830215 C129.959724,229.143634 130.023348,229.364984 130.150597,229.494269 C130.277847,229.623555 130.498659,229.688197 130.813041,229.688197 L131.565307,229.688197 L131.565307,230.593192 L130.644623,230.593192 C130.075742,230.593192 129.649088,230.456073 129.364648,230.181831 C129.080207,229.907588 128.937989,229.457054 128.937989,228.830215 L128.937989,225.033936 L128.140812,225.033936 L128.140812,224.152448 L128.937989,224.152448 L128.937989,222.530508 L129.959724,222.530508 L129.959724,224.152448 L131.565307,224.152448 L131.565307,225.033936 L129.959724,225.033936 Z M138.257108,224.152448 L138.257108,230.593192 L137.235373,230.593192 L137.235373,229.641184 C137.040756,229.970275 136.769419,230.226884 136.421354,230.411018 C136.073288,230.595152 135.689674,230.687217 135.270499,230.687217 C134.791441,230.687217 134.361044,230.583399 133.979295,230.375758 C133.597547,230.168117 133.296269,229.856661 133.075453,229.44138 C132.854638,229.026099 132.744232,228.520717 132.744232,227.925219 L132.744232,224.152448 L133.754738,224.152448 L133.754738,227.784181 C133.754738,228.418856 133.908184,228.906609 134.21508,229.247453 C134.521977,229.588297 134.941146,229.758716 135.4726,229.758716 C136.019025,229.758716 136.449422,229.58242 136.763803,229.229823 C137.078185,228.877225 137.235373,228.364008 137.235373,227.690156 L137.235373,224.152448 L138.257108,224.152448 Z M141.007932,225.339519 C141.210034,224.971251 141.511312,224.663712 141.911774,224.416894 C142.312236,224.170076 142.778187,224.046669 143.309642,224.046669 C143.856066,224.046669 144.351958,224.183788 144.797332,224.45803 C145.242706,224.732273 145.592637,225.118165 145.847136,225.615719 C146.101636,226.113273 146.228883,226.691132 146.228883,227.349313 C146.228883,227.999659 146.101636,228.579477 145.847136,229.088785 C145.592637,229.598092 145.242706,229.993778 144.797332,230.275856 C144.351958,230.557934 143.856066,230.698971 143.309642,230.698971 C142.785672,230.698971 142.323464,230.575563 141.923002,230.328745 C141.52254,230.081927 141.217519,229.774389 141.007932,229.40612 L141.007932,233.64902 L139.986197,233.64902 L139.986197,224.152448 L141.007932,224.152448 L141.007932,225.339519 Z M145.184693,227.349313 C145.184693,226.863513 145.091129,226.440402 144.903997,226.07997 C144.716865,225.719537 144.464241,225.445299 144.146117,225.257247 C143.827993,225.069195 143.478061,224.97517 143.096312,224.97517 C142.722049,224.97517 142.37586,225.071154 142.057736,225.263123 C141.739612,225.455093 141.485116,225.733249 141.294242,226.097599 C141.103367,226.46195 141.007932,226.883101 141.007932,227.361067 C141.007932,227.846867 141.103367,228.271936 141.294242,228.636287 C141.485116,229.000637 141.739612,229.278793 142.057736,229.470763 C142.37586,229.662733 142.722049,229.758716 143.096312,229.758716 C143.478061,229.758716 143.827993,229.662733 144.146117,229.470763 C144.464241,229.278793 144.716865,229.000637 144.903997,228.636287 C145.091129,228.271936 145.184693,227.84295 145.184693,227.349313 Z M149.754429,230.698971 C149.282857,230.698971 148.859946,230.61474 148.485682,230.446277 C148.111418,230.277814 147.815754,230.042753 147.598681,229.741086 C147.381609,229.43942 147.261846,229.092704 147.23939,228.70093 L148.294808,228.70093 C148.324749,229.022185 148.468839,229.28467 148.727081,229.488393 C148.985323,229.692116 149.324026,229.793976 149.743201,229.793976 C150.132436,229.793976 150.439327,229.703869 150.663885,229.523652 C150.888444,229.343436 151.000721,229.11621 151.000721,228.841968 C151.000721,228.55989 150.880958,228.350294 150.64143,228.213172 C150.401901,228.076051 150.031386,227.940891 149.529872,227.807688 C149.073271,227.68232 148.700884,227.554995 148.412701,227.425709 C148.124518,227.296423 147.877508,227.104457 147.671663,226.849803 C147.465818,226.59515 147.362897,226.260187 147.362897,225.844906 C147.362897,225.515815 147.456461,225.214153 147.643593,224.939911 C147.830725,224.665669 148.096448,224.448237 148.44077,224.287609 C148.785093,224.126982 149.178064,224.046669 149.619695,224.046669 C150.300855,224.046669 150.851014,224.226883 151.27019,224.587315 C151.689365,224.947748 151.91392,225.441377 151.943861,226.068216 L150.922126,226.068216 C150.89967,225.73129 150.770551,225.46097 150.534765,225.257247 C150.298979,225.053524 149.982731,224.951664 149.586012,224.951664 C149.219233,224.951664 148.927312,225.033936 148.710239,225.198481 C148.493166,225.363026 148.384631,225.578499 148.384631,225.844906 C148.384631,226.056464 148.450126,226.230801 148.581119,226.367923 C148.712111,226.505044 148.876784,226.614739 149.075144,226.697012 C149.273504,226.779284 149.548584,226.87135 149.900391,226.973212 C150.342023,227.098579 150.70131,227.221987 150.978265,227.343437 C151.25522,227.464887 151.492874,227.64706 151.691234,227.88996 C151.889594,228.13286 151.992515,228.450193 152,228.841968 C152,229.194565 151.906435,229.511898 151.719304,229.793976 C151.532172,230.076053 151.26832,230.297403 150.92774,230.45803 C150.58716,230.618658 150.19606,230.698971 149.754429,230.698971 Z" id="TraditionalStartups" fill="#FFFFFF" fill-rule="nonzero"></path>
                        </g>
                    </g>
                </g>
            </g>
        </g>
    </g>
</svg>