<svg xmlns="http://www.w3.org/2000/svg" width="143" height="26" viewBox="0 0 143 26">
    <g fill="none" fill-rule="evenodd">
        <g>
            <g>
                <g>
                    <g>
                        <g>
                            <path fill="#00E6C1" d="M48.389 0H143v26H48.389V0zm13.968 5.294H52v15.275h4.247v-5.98h4.506V11.36h-4.506V8.674h6.11v-3.38zm11.461 12.783l.824 2.492h4.485L73.58 5.294h-4.897l-5.568 15.275h4.463l.824-2.492h5.416zm-1.061-3.25h-3.272l1.625-4.94 1.647 4.94zm7.236-1.928c0 1.517.314 2.863.943 4.04.628 1.178 1.52 2.095 2.676 2.752 1.155.658 2.484.986 3.986.986 1.907 0 3.51-.509 4.81-1.527 1.3-1.019 2.138-2.402 2.514-4.15H90.35c-.274.578-.654 1.019-1.137 1.322-.484.304-1.044.455-1.68.455-.982 0-1.765-.35-2.35-1.05-.586-.701-.878-1.644-.878-2.828 0-1.17.292-2.105.877-2.806.586-.7 1.37-1.05 2.351-1.05.636 0 1.196.15 1.68.454.483.304.863.744 1.137 1.322h4.572c-.376-1.748-1.214-3.13-2.514-4.15-1.3-1.018-2.903-1.527-4.81-1.527-1.502 0-2.83.329-3.986.986-1.156.657-2.048 1.574-2.676 2.752-.629 1.177-.943 2.517-.943 4.019zm28.449-7.605h-12.35v3.38h4.03v11.895h4.246V8.674h4.074v-3.38zm8.905 15.427c1.43 0 2.744-.336 3.943-1.008 1.199-.672 2.145-1.603 2.838-2.795.694-1.192 1.04-2.539 1.04-4.04 0-1.503-.346-2.85-1.04-4.042-.693-1.191-1.635-2.12-2.827-2.784-1.192-.664-2.51-.996-3.954-.996-1.43 0-2.745.332-3.944.996-1.199.665-2.148 1.593-2.849 2.784-.7 1.192-1.05 2.539-1.05 4.041 0 1.502.35 2.85 1.05 4.041.7 1.192 1.65 2.123 2.85 2.795 1.198.672 2.513 1.008 3.943 1.008zm0-3.944c-1.098 0-1.958-.35-2.579-1.05-.62-.701-.931-1.65-.931-2.85 0-1.213.31-2.17.931-2.87.621-.701 1.48-1.051 2.579-1.051 1.083 0 1.939.35 2.567 1.05.629.7.943 1.658.943 2.871 0 1.185-.314 2.13-.943 2.839-.628.707-1.484 1.061-2.567 1.061zm17.463 3.792h4.745l-3.445-5.958c1.098-.333 1.932-.892 2.502-1.68.571-.787.856-1.7.856-2.74 0-.925-.216-1.76-.65-2.503-.433-.744-1.076-1.329-1.928-1.755-.852-.426-1.892-.64-3.12-.64h-6.695V20.57h4.247v-5.633h.455l3.033 5.633zm-3.488-8.537V8.847h2.101c.564 0 .993.141 1.29.423.296.281.444.668.444 1.159 0 .52-.145.917-.434 1.192-.289.274-.722.411-1.3.411h-2.101z" transform="translate(-53 -27) translate(53 27)"/>
                            <path fill="#00E6C1" d="M48.389 0H143V26H48.389z" transform="translate(-53 -27) translate(53 27)"/>
                            <g fill="#FFF" fill-rule="nonzero">
                                <path d="M22.143 0L18.395 15.275 13.173 15.275 11.072 5.915 8.927 15.275 3.705 15.275 0 0 4.593 0 6.37 10.443 8.775 0 13.433 0 15.773 10.357 17.55 0zM28.188 0L28.188 15.275 23.942 15.275 23.942 0zM44.763 15.275L40.517 15.275 34.862 6.738 34.862 15.275 30.615 15.275 30.615 0 34.862 0 40.517 8.645 40.517 0 44.763 0z" transform="translate(-53 -27) translate(53 27) translate(0 5.056)"/>
                            </g>
                            <g fill="#14415D" fill-rule="nonzero">
                                <path d="M10.357.238L10.357 3.618 4.247 3.618 4.247 6.305 8.753 6.305 8.753 9.533 4.247 9.533 4.247 15.513 0 15.513 0 .238zM21.818 13.022h-5.416l-.824 2.491h-4.463L16.683.238h4.897l5.547 15.275h-4.485l-.824-2.491zm-1.061-3.25l-1.647-4.94-1.625 4.94h3.272zM27.993 7.843c0-1.502.314-2.842.943-4.019.628-1.177 1.52-2.094 2.676-2.752 1.155-.657 2.484-.985 3.986-.985 1.907 0 3.51.509 4.81 1.527 1.3 1.019 2.138 2.402 2.514 4.15H38.35c-.274-.578-.654-1.019-1.138-1.322-.483-.304-1.043-.455-1.679-.455-.982 0-1.765.35-2.35 1.05-.586.701-.878 1.636-.878 2.806 0 1.185.292 2.127.877 2.828.586.7 1.37 1.05 2.351 1.05.636 0 1.196-.151 1.68-.454.483-.304.863-.744 1.137-1.322h4.572c-.376 1.748-1.214 3.13-2.514 4.15-1.3 1.018-2.903 1.527-4.81 1.527-1.502 0-2.83-.329-3.986-.986-1.156-.657-2.048-1.575-2.676-2.752-.629-1.177-.943-2.524-.943-4.04zM56.442.238L56.442 3.618 52.368 3.618 52.368 15.513 48.122 15.513 48.122 3.618 44.092 3.618 44.092.238zM65.347 15.665c-1.43 0-2.745-.336-3.944-1.007-1.199-.672-2.148-1.604-2.849-2.795-.7-1.192-1.05-2.54-1.05-4.041 0-1.503.35-2.85 1.05-4.041.7-1.192 1.65-2.12 2.85-2.784C62.601.332 63.916 0 65.346 0c1.444 0 2.762.332 3.954.997 1.192.664 2.134 1.592 2.827 2.784.694 1.192 1.04 2.538 1.04 4.04 0 1.503-.346 2.85-1.04 4.042-.693 1.191-1.64 2.123-2.838 2.795-1.199.671-2.513 1.007-3.943 1.007zm0-3.943c1.083 0 1.939-.354 2.567-1.062.629-.708.943-1.654.943-2.838 0-1.214-.314-2.17-.943-2.871-.628-.7-1.484-1.051-2.567-1.051-1.098 0-1.958.35-2.579 1.05-.62.701-.931 1.658-.931 2.872 0 1.199.31 2.148.931 2.849.621.7 1.48 1.05 2.579 1.05zM82.81 15.513L79.777 9.88h-.455v5.633h-4.247V.238h6.695c1.228 0 2.268.213 3.12.64.852.426 1.495 1.01 1.928 1.754.434.744.65 1.579.65 2.503 0 1.04-.285 1.954-.856 2.74-.57.788-1.404 1.348-2.502 1.68l3.445 5.958H82.81zm-3.488-8.536h2.101c.578 0 1.011-.138 1.3-.412.29-.274.434-.672.434-1.192 0-.49-.148-.877-.444-1.159-.297-.282-.726-.422-1.29-.422h-2.101v3.185z" transform="translate(-53 -27) translate(53 27) translate(52 5.056)"/>
                            </g>
                            <g fill="#14415D" fill-rule="nonzero">
                                <path d="M22.143 0L18.395 15.275 13.173 15.275 11.072 5.915 8.927 15.275 3.705 15.275 0 0 4.593 0 6.37 10.443 8.775 0 13.433 0 15.773 10.357 17.55 0zM28.188 0L28.188 15.275 23.942 15.275 23.942 0zM44.763 15.275L40.517 15.275 34.862 6.738 34.862 15.275 30.615 15.275 30.615 0 34.862 0 40.517 8.645 40.517 0 44.763 0z" transform="translate(-53 -27) translate(53 27) translate(0 5.056)"/>
                            </g>
                        </g>
                    </g>
                </g>
            </g>
        </g>
    </g>
</svg>
